<?xml version="1.0" encoding="UTF-8" standalone="no"?>
<!-- Created with Inkscape (http://www.inkscape.org/) -->

<svg
   width="70.944191mm"
   height="30.781981mm"
   viewBox="0 0 70.944191 30.781981"
   version="1.1"
   id="svg1"
   inkscape:version="1.3.2 (091e20e, 2023-11-25, custom)"
   sodipodi:docname="logoInstagramInkscape.svg"
   xmlns:inkscape="http://www.inkscape.org/namespaces/inkscape"
   xmlns:sodipodi="http://sodipodi.sourceforge.net/DTD/sodipodi-0.dtd"
   xmlns:xlink="http://www.w3.org/1999/xlink"
   xmlns="http://www.w3.org/2000/svg"
   xmlns:svg="http://www.w3.org/2000/svg"
   xmlns:rdf="http://www.w3.org/1999/02/22-rdf-syntax-ns#"
   xmlns:cc="http://creativecommons.org/ns#"
   xmlns:dc="http://purl.org/dc/elements/1.1/">
  <defs
     id="defs1">
    <linearGradient
       x1="0"
       y1="0"
       x2="1"
       y2="0"
       gradientUnits="userSpaceOnUse"
       gradientTransform="matrix(320.879,-307.135,-307.135,-320.879,2434.46,3072.54)"
       spreadMethod="pad"
       id="linearGradient174">
      <stop
         style="stop-color:#D2691E;stop-opacity:1;"
         offset="0.0011048"
         id="stop168" />
      <stop
         style="stop-color:#8B4513;stop-opacity:1;"
         offset="0.0011048"
         id="stop169" />
      <stop
         style="stop-color:#A0522D;stop-opacity:1;"
         offset="0.20935699"
         id="stop170" />
      <stop
         style="stop-color:#f07a3d;stop-opacity:1;"
         offset="0.37645999"
         id="stop171" />
      <stop
         style="stop-color:#5322e6;stop-opacity:1;"
         offset="0.52381498"
         id="stop172" />
      <stop
         style="stop-color:#3ea2a0;stop-opacity:1;"
         offset="0.739443"
         id="stop173" />
      <stop
         style="stop-color:#ab488f;stop-opacity:1;"
         offset="1"
         id="stop174" />
    </linearGradient>
    <linearGradient
       x1="0"
       y1="0"
       x2="1"
       y2="0"
       gradientUnits="userSpaceOnUse"
       gradientTransform="matrix(353.746,-298.772,-298.772,-353.746,3069.42,3059.07)"
       spreadMethod="pad"
       id="linearGradient137-1">
      <stop
         style="stop-opacity:1;stop-color:#f9d76c"
         offset="0"
         id="stop131-2" />
      <stop
         style="stop-opacity:1;stop-color:#f9d76c"
         offset="0.0011048"
         id="stop132-9" />
      <stop
         style="stop-opacity:1;stop-color:#f9a837"
         offset="0.209357"
         id="stop133-9" />
      <stop
         style="stop-opacity:1;stop-color:#f03d74"
         offset="0.37646"
         id="stop134-9" />
      <stop
         style="stop-opacity:1;stop-color:#e62299"
         offset="0.523815"
         id="stop135-0" />
      <stop
         style="stop-opacity:1;stop-color:#6f3ea2"
         offset="0.739443"
         id="stop136-1" />
      <stop
         style="stop-opacity:1;stop-color:#4850ab"
         offset="1"
         id="stop137-9" />
    </linearGradient>
    <clipPath
       clipPathUnits="userSpaceOnUse"
       id="clipPath137-9">
      <path
         d="m 3412.04,2919.11 c 0,-97.7 -79.2,-176.91 -176.9,-176.91 -97.71,0 -176.91,79.21 -176.91,176.91 0,97.71 79.2,176.91 176.91,176.91 97.7,0 176.9,-79.2 176.9,-176.91 z"
         transform="translate(0,-2.5e-5)"
         id="path137-5" />
    </clipPath>
    <clipPath
       clipPathUnits="userSpaceOnUse"
       id="clipPath137-5">
      <path
         d="m 3412.04,2919.11 c 0,-97.7 -79.2,-176.91 -176.9,-176.91 -97.71,0 -176.91,79.21 -176.91,176.91 0,97.71 79.2,176.91 176.91,176.91 97.7,0 176.9,-79.2 176.9,-176.91 z"
         transform="translate(0,-2.5e-5)"
         id="path137-0" />
    </clipPath>
    <linearGradient
       inkscape:collect="always"
       xlink:href="#linearGradient174"
       id="linearGradient1"
       gradientUnits="userSpaceOnUse"
       gradientTransform="matrix(353.746,-298.772,-298.772,-353.746,3069.42,3059.07)"
       x1="0"
       y1="0"
       x2="1"
       y2="0"
       spreadMethod="pad" />
    <linearGradient
       inkscape:collect="always"
       xlink:href="#linearGradient137-1"
       id="linearGradient2"
       gradientUnits="userSpaceOnUse"
       gradientTransform="matrix(353.746,-298.772,-298.772,-353.746,3069.42,3059.07)"
       x1="0"
       y1="0"
       x2="1"
       y2="0"
       spreadMethod="pad" />
  </defs>
  <sodipodi:namedview
     id="base"
     pagecolor="#ffffff"
     bordercolor="#000000"
     borderopacity="0.3"
     inkscape:pageopacity="0.0"
     inkscape:pageshadow="2"
     inkscape:zoom="0.7"
     inkscape:cx="537.14286"
     inkscape:cy="303.57143"
     inkscape:document-units="mm"
     inkscape:showpageshadow="2"
     inkscape:pagecheckerboard="0"
     inkscape:deskcolor="#d1d1d1"
     inkscape:window-width="1366"
     inkscape:window-height="697"
     inkscape:window-x="-8"
     inkscape:window-y="1072"
     inkscape:window-maximized="1"
     inkscape:current-layer="group-R5" />
  <metadata
     id="metadata1">
    <rdf:RDF>
      <cc:Work
         rdf:about="">
        <dc:format>image/svg+xml</dc:format>
        <dc:type
           rdf:resource="http://purl.org/dc/dcmitype/StillImage" />
      </cc:Work>
    </rdf:RDF>
  </metadata>
  <g
     id="group-R5"
     transform="matrix(0.26458333,0,0,0.26458333,-125.34878,264.51067)">
    <path
       id="path131"
       d="m 3412.04,2919.11 c 0,-97.7 -79.2,-176.91 -176.9,-176.91 -97.71,0 -176.91,79.21 -176.91,176.91 0,97.71 79.2,176.91 176.91,176.91 97.7,0 176.9,-79.2 176.9,-176.91"
       style="fill:url(#linearGradient2);fill-opacity:1;fill-rule:nonzero;stroke:none"
       transform="matrix(0.31402254,0,0,-0.32472703,-486.59396,5.6359789)"
       clip-path="url(#clipPath137-9)"
       inkscape:export-filename="path131.svg"
       inkscape:export-xdpi="96"
       inkscape:export-ydpi="96" />
    <path
       id="path138"
       d="m 546.55589,-964.01193 c -2.11023,0 -3.8185,1.76977 -3.8185,3.9487 0,2.18216 1.70827,3.94867 3.8185,3.94867 2.11024,0 3.81853,-1.76651 3.81853,-3.94867 0,-2.17893 -1.70829,-3.9487 -3.81853,-3.9487"
       style="fill:#ffffff;fill-opacity:1;fill-rule:nonzero;stroke:none;stroke-width:0.319329" />
    <path
       id="path139"
       d="m 529.57984,-931.73405 c -5.6681,0 -10.27481,-4.76701 -10.27481,-10.62507 0,-5.85807 4.60671,-10.62508 10.27481,-10.62508 5.66498,0 10.27169,4.76701 10.27169,10.62508 0,5.85806 -4.60671,10.62507 -10.27169,10.62507 z m 0,-27.21214 c -8.84602,0 -16.04342,7.43951 -16.04342,16.58707 0,9.14756 7.1974,16.58706 16.04342,16.58706 8.84288,0 16.04028,-7.4395 16.04028,-16.58706 0,-9.14756 -7.1974,-16.58707 -16.04028,-16.58707"
       style="fill:#ffffff;fill-opacity:1;fill-rule:nonzero;stroke:none;stroke-width:0.319329" />
    <path
       id="path140"
       d="m 516.3061,-969.70115 c -7.40778,0 -13.43388,6.23152 -13.43388,13.89509 v 26.89388 c 0,7.66032 6.0261,13.89508 13.43388,13.89508 h 26.00736 c 7.41094,0 13.43701,-6.23476 13.43701,-13.89508 v -26.89388 c 0,-7.66357 -6.02607,-13.89509 -13.43701,-13.89509 z m 26.00736,61.01947 H 516.3061 c -10.78667,0 -19.56359,-9.07613 -19.56359,-20.2305 v -26.89388 c 0,-11.15438 8.77692,-20.2305 19.56359,-20.2305 h 26.00736 c 10.78667,0 19.56674,9.07612 19.56674,20.2305 v 26.89388 c 0,11.15437 -8.78007,20.2305 -19.56674,20.2305"
       style="fill:#ffffff;fill-opacity:1;fill-rule:nonzero;stroke:none;stroke-width:0.319329" />
    <path
       id="path131-3"
       d="m 3412.04,2919.11 c 0,-97.7 -79.2,-176.91 -176.9,-176.91 -97.71,0 -176.91,79.21 -176.91,176.91 0,97.71 79.2,176.91 176.91,176.91 97.7,0 176.9,-79.2 176.9,-176.91"
       style="fill:url(#linearGradient1);fill-rule:nonzero;stroke:none"
       transform="matrix(0.31402254,0,0,-0.32472703,-329.56277,7.0823943)"
       clip-path="url(#clipPath137-5)" />
    <path
       id="path138-3"
       d="m 703.58708,-962.56551 c -2.11023,0 -3.81851,1.76977 -3.81851,3.94869 0,2.18217 1.70828,3.94867 3.81851,3.94867 2.11023,0 3.81853,-1.7665 3.81853,-3.94867 0,-2.17892 -1.7083,-3.94869 -3.81853,-3.94869"
       style="fill:#ffffff;fill-opacity:1;fill-rule:nonzero;stroke:none;stroke-width:0.319329" />
    <path
       id="path139-6"
       d="m 686.61102,-930.28763 c -5.66809,0 -10.2748,-4.76701 -10.2748,-10.62508 0,-5.85807 4.60671,-10.62507 10.2748,-10.62507 5.66498,0 10.27169,4.767 10.27169,10.62507 0,5.85807 -4.60671,10.62508 -10.27169,10.62508 z m 0,-27.21214 c -8.84602,0 -16.04341,7.4395 -16.04341,16.58706 0,9.14756 7.19739,16.58707 16.04341,16.58707 8.84288,0 16.04028,-7.43951 16.04028,-16.58707 0,-9.14756 -7.1974,-16.58706 -16.04028,-16.58706"
       style="fill:#ffffff;fill-opacity:1;fill-rule:nonzero;stroke:none;stroke-width:0.319329" />
    <path
       id="path140-7"
       d="m 673.33728,-968.25473 c -7.40778,0 -13.43388,6.23152 -13.43388,13.89508 v 26.89388 c 0,7.66033 6.0261,13.89509 13.43388,13.89509 h 26.00736 c 7.41094,0 13.43702,-6.23476 13.43702,-13.89509 v -26.89388 c 0,-7.66356 -6.02608,-13.89508 -13.43702,-13.89508 z m 26.00736,61.01946 h -26.00736 c -10.78667,0 -19.56358,-9.07613 -19.56358,-20.2305 v -26.89388 c 0,-11.15437 8.77691,-20.2305 19.56358,-20.2305 h 26.00736 c 10.78667,0 19.56674,9.07613 19.56674,20.2305 v 26.89388 c 0,11.15437 -8.78007,20.2305 -19.56674,20.2305"
       style="fill:#ffffff;fill-opacity:1;fill-rule:nonzero;stroke:none;stroke-width:0.319329" />
  </g>
</svg>
