<?xml version="1.0" encoding="UTF-8" standalone="no"?>
<!-- Created with Inkscape (http://www.inkscape.org/) -->

<svg
   version="1.1"
   id="svg1"
   width="4533.3335"
   height="2666.6667"
   viewBox="0 0 4533.3335 2666.6667"
   sodipodi:docname="Palmeres.eps"
   xmlns:inkscape="http://www.inkscape.org/namespaces/inkscape"
   xmlns:sodipodi="http://sodipodi.sourceforge.net/DTD/sodipodi-0.dtd"
   xmlns="http://www.w3.org/2000/svg"
   xmlns:svg="http://www.w3.org/2000/svg">
  <defs
     id="defs1" />
  <sodipodi:namedview
     id="namedview1"
     pagecolor="#ffffff"
     bordercolor="#000000"
     borderopacity="0.25"
     inkscape:showpageshadow="2"
     inkscape:pageopacity="0.0"
     inkscape:pagecheckerboard="0"
     inkscape:deskcolor="#d1d1d1">
    <inkscape:page
       x="0"
       y="0"
       inkscape:label="1"
       id="page1"
       width="4533.3335"
       height="2666.6667"
       margin="0"
       bleed="0"
       inkscape:export-filename="Palmeres.eps.svg"
       inkscape:export-xdpi="96"
       inkscape:export-ydpi="96" />
  </sodipodi:namedview>
  <g
     id="g1"
     inkscape:groupmode="layer"
     inkscape:label="1">
    <g
       id="group-R5"
       transform="translate(4658.78,-12.471839)">
      <path
         id="path55"
         d="m -3099.8491,668.61867 c -56.44,-47.01333 -123.0667,-81.70666 -193.9334,-100.98666 9.2534,13.32 23.4134,22.24 37.1867,30.8 -19.16,-1.10667 -38.32,-2.2 -57.4933,-3.30667 16.9733,7.77334 32.96,17.70667 47.4533,29.48 -31.6133,-5.4 -64.0267,-6.08 -95.8267,-2 9.52,5.50667 18.4267,12.09334 26.48,19.58667 -13.5466,-1.2 -27.4666,2.54667 -38.56,10.38667 5.64,3.32 10.28,8.34666 13.12,14.24 -3.56,0.71999 -7.1466,1.43999 -10.72,2.14666 13.3867,27.52 43.8934,41.34667 71.4934,54.56 39.64,18.98667 77.8266,40.98667 114.12,65.77333 -51.44,11.44 -101.2534,30.12 -147.5334,55.32 10.3067,2.05333 20.8934,2.72 31.3734,1.97333 -9.0534,4.72 -17.4934,10.58667 -25.08,17.42667 7.7733,1.37333 15.56,2.76 23.3333,4.14667 -5.08,3.90666 -10.1733,7.81333 -15.2533,11.73333 26.7333,-0.8 52.3466,9.48 77.92,17.32 69.2533,21.22667 142.4533,25.05333 214.7866,28.73333 6.1334,0.30667 12.44,0.6 18.2534,-1.37333 9.5733,-3.26667 16.2533,-12.28 19.36,-21.90667 7.24,-22.50666 -2.3734,-46.66666 -12.3334,-68.10666 -22.7466,-48.97333 -48.2666,-96.64 -76.4,-142.73333 l -21.7466,-23.21334"
         style="fill:#566e3e;fill-opacity:1;fill-rule:nonzero;stroke:none;stroke-width:0.133333" />
      <path
         id="path56"
         d="m -2862.7692,763.20534 c -14.0399,16.98667 -25.3066,36.25333 -33.2266,56.81333 35.5333,-42.56 71.7466,-85.74666 117.96,-116.36 -18.8534,21.04 -35.4934,44.06667 -49.56,68.57334 38.2266,-41.24 85.08,-74.42667 136.6666,-96.81334 -15.1333,14.32 -29,29.96 -41.4266,46.68 22.7866,-12.88 45.6133,-25.69333 68.48,-38.41333 20.04,-11.14667 40.9866,-22.49333 63.8666,-23.84 -20.3066,19.62667 -40.6133,39.25333 -60.92,58.88 51.72,-22.38667 106.2267,-45.24 162.3334,-39.94667 -24.6267,13.8 -48.68,28.6 -72.0934,44.36 50.9867,-9.53333 103.16,-12.76 154.9334,-9.57333 -37.9867,9.18667 -75.2267,21.4 -111.28,36.49333 50.8533,-3.53333 102.0533,-1.72 152.52,5.37334 -33.3334,9.56 -66.6667,19.12 -100,28.66666 46.8533,3.90667 93.7066,7.8 140.5733,11.69334 -50.92,10.43999 -96.68,39.45333 -147.7867,48.95999 -59.7866,11.10667 -120.88,-5.37333 -181.64,-7.85333 -64.24,-2.62667 -128.9466,11.18667 -186.9066,38.90667 -16.28,7.78666 -57.8,44.28 -74.8,39.30666 -19.8933,-5.82666 -16.12,-41.74666 -10.4667,-55.49333 14.6267,-35.62667 47.8667,-67.78666 72.7733,-96.41333"
         style="fill:#566e3e;fill-opacity:1;fill-rule:nonzero;stroke:none;stroke-width:0.133333" />
      <path
         id="path57"
         d="m -3022.5825,544.39201 c -3.8666,8.34667 -6.0933,17.42667 -6.5066,26.61333 22.0666,-19.66666 50.5733,-31.97333 80.0266,-34.56 -10.3333,12.17334 -17.9733,26.62667 -22.2133,42.01334 8.3067,-6.77334 17.8933,-11.94667 28.1067,-15.18667 -6.6,11.38667 -11.2934,23.86667 -13.8134,36.78667 11.84,-5.12 23.04,-11.73334 33.24,-19.65334 -14.7866,25.01334 -24.6266,52.93334 -28.8133,81.69334 17.5467,-23.02667 39.24,-48.24 68.1867,-48.49334 -21.9734,32.53334 -44.5467,66.64 -49.6134,105.56 13.1067,-18.06667 29.0267,-34.06667 47.0267,-47.26667 -15.4667,21.74667 -27.16,46.18667 -34.36,71.88 12.72,-12.85333 25.4533,-25.70666 38.1733,-38.56 -15.0133,22.77334 -27.84,46.98667 -38.2133,72.21334 12.1067,-9.45334 22.3733,-21.25334 30.0533,-34.54667 -25.28,48.02667 -42.08,100.52 -49.3733,154.30666 -2.64,19.37334 -4.2,39.48 -13.2267,56.82667 -1.2666,2.42666 -2.9466,5 -5.6,5.65333 -5.12,1.26667 -8.6,-5.02667 -10.0133,-10.10667 -5.9867,-21.33333 -10.5867,-43.05333 -17.4933,-64.10666 -8.7067,-26.46667 -20.9734,-51.6 -33.2134,-76.64 -26.4,-54.02666 -55.1733,-107.50666 -79.44,-162.53333 -10.9733,-24.89333 2.7334,-39.61333 20.0534,-58.48 6.2,-6.76 56.76,-39.69333 57.0266,-43.41333"
         style="fill:#566e3e;fill-opacity:1;fill-rule:nonzero;stroke:none;stroke-width:0.133333" />
      <path
         id="path58"
         d="m -3104.1825,847.08534 c 16,14.32 31.9867,28.65333 47.9734,42.97333 -48.2,-21.08 -98.4134,-37.53333 -149.7467,-49.06667 27.5067,15.69334 54.4,32.44 80.6,50.21334 -54.16,-15.22667 -109.7067,-25.56 -165.72,-30.81334 33.1733,15.18667 66.36,30.38667 99.5333,45.58667 -64.4933,-11.17333 -131,-10.66667 -195.32,1.50667 4.76,8.08 14.8267,11.01333 23.9334,13.25333 32.4533,8 64.92,16.01333 97.3866,24.01333 -69.8533,6.41333 -138.9066,21.50667 -205.0666,44.81333 39.6,3.6 79.3066,6.04 119.04,7.33334 -67.12,14.53333 -131.44,41.84003 -188.5227,80.01333 40.7627,-7.1066 81.6693,-13.3066 122.7093,-18.6 -53.5866,21.8 -102.8533,54.1334 -144.184,94.6133 44.2374,-21.4399 88.0907,-43.6399 131.5574,-66.5999 -42.44,22.7066 -78.36,57.4133 -102.5067,99.0399 50.48,-39.36 100.9467,-78.7333 151.4133,-118.1066 -21.4666,24.0933 -38.24,52.3467 -49.1466,82.72 36.2133,-41.76 72.4266,-83.5067 108.64,-125.2534 -20.7334,37.2667 -41.48,74.5467 -62.2134,111.8267 38.1467,-46.3466 76.3067,-92.68 114.4667,-139.02667 -20.76,36.26667 -41.5067,72.53337 -62.2533,108.81337 22,-17.4 38.7733,-40.4 55.2533,-63.08 18.3333,-25.24 36.6667,-50.4667 54.9867,-75.69337 -19.0667,37.62667 -38.1467,75.25337 -57.2267,112.88007 33.1333,-50.4401 71.0133,-97.76007 112.96,-141.1334 -23.84,39.92 -47.68,79.8533 -71.52,119.7867 32.8933,-42.9467 66.08,-86.2267 106.9333,-121.68003 -13.8266,29.02666 -30.92,56.48 -50.88,81.68003 38.1734,-20.60003 60.2267,-64.5067 99.6667,-82.5467 -17.8133,14.28 -33.32,31.44 -45.7467,50.58667 30.3467,-21.25334 63.12,-39.05334 97.4934,-52.90667 -23.7867,14.13333 -45.8667,31.16 -65.5867,50.58667 28.4933,-14.13334 57.6,-27 87.2133,-38.57334 -15.2,7.8 -28.2933,19.68 -37.5333,34.05334 6.84,-10.64 54.4533,-19.09334 66.92,-22.29334 -4.64,4.26667 -9.7733,8.08 -14.3867,12.34667 49.76,-8.09333 20.7867,-41.54666 -5.0533,-60.61333 -33.0933,-24.42667 -68.68,-45.48 -106.0667,-62.65333"
         style="fill:#668944;fill-opacity:1;fill-rule:nonzero;stroke:none;stroke-width:0.133333" />
      <path
         id="path59"
         d="m -2795.3292,2016.792 c -4.4,-6.5067 -95.9866,-78.2667 -152.1999,-224.4933 -49.3467,-128.4 -58.08,-292.1867 -64.16,-458.7734 -6.4267,-175.7066 33.4533,-385.39997 33.4533,-385.39997 l 43.6933,13.56 c 0,0 -34,154.62667 -18.36,348.31997 12.44,154.08 44.2,336.84 107.9733,429 48.8267,70.5734 181.7867,144.0267 181.7867,144.0267 0,0 -4.0133,56.7067 -47.4933,78.76 l -84.6934,55"
         style="fill:#95693f;fill-opacity:1;fill-rule:nonzero;stroke:none;stroke-width:0.133333" />
      <path
         id="path60"
         d="m -2896.8758,831.05867 c -7.88,18.37333 -12.8,38.01333 -14.5067,57.92 26.36,-40.73333 61.36,-75.86667 102,-102.38666 -12.7733,22.13333 -25.56,44.25333 -38.3333,66.38666 42.7333,-37.69333 88.16,-76.77333 143.9466,-88.37333 -19.3733,16 -36.8533,34.28 -51.9733,54.33333 47.6,-23.61333 100.4133,-36.65333 153.5333,-37.89333 -23.2933,6.93333 -45.6666,16.90667 -66.3733,29.6 58.7067,-7.09334 119.3467,-14.05333 176.0933,2.57333 -18.6933,-3.84 -38.32,-3.01333 -56.6266,2.4 47.68,1.33333 95.1333,10.26667 140.0266,26.37333 -29.6266,-0.10666 -59.2533,-0.21333 -88.8666,-0.32 59.7866,19.14667 121.32,39.24 168.9866,80.09334 -40.76,-7.54667 -80.48,-20.61334 -117.76,-38.73334 17.8934,16.46667 32.16,36.84 41.5067,59.28 -30.84,-23.85333 -64.2667,-44.32 -99.52,-60.94666 20.44,22.98666 37.52,48.96 50.56,76.82666 -48.88,-34 -99.3333,-65.74666 -151.1467,-95.08 25.8534,21.12 48.6534,45.97334 67.4534,73.56 -45.24,-30.81333 -92.6934,-58.37333 -141.8667,-82.41333 32.6533,24.24 61.8267,53.17333 86.3067,85.64 -57.8,-29.18667 -118.6,-52.44 -181.1334,-69.25333 40.3734,17.45333 78.3734,40.37333 112.6534,67.93333 -49.7067,-17.68 -99.8534,-34.08 -150.4,-49.21333 32.6266,15.12 65.4133,30.34666 95.0266,50.73333 -46.04,-14.56 -92.8133,-26.8 -140.0933,-36.66667 31.48,14.50667 61.9467,31.21333 90.96,50.16 -48.0267,-17.65333 -97.8667,-30.34666 -148.48,-37.78666 30.8534,10 60.6533,23.26666 88.72,39.51999 -37.7067,-2.69333 -75.6,-2.96 -113.3466,-0.78666 17.3866,3.53333 34.7733,7.05333 52.1733,10.58666 -28.44,4.37334 -94,29.22667 -83.8533,-25.24 3.72,-19.93333 19.8266,-39.98666 31.1866,-56.27999 11.44,-16.4 35.56,-34.85334 43.1467,-52.54667"
         style="fill:#668944;fill-opacity:1;fill-rule:nonzero;stroke:none;stroke-width:0.133333" />
      <path
         id="path61"
         d="m -3004.0225,904.36534 c -47.6266,-66.53334 -105.0666,-126.01333 -169.8933,-175.93333 2.48,7.61333 4.96,15.22666 7.4267,22.84 -27.04,-17.78667 -54.92,-34.29334 -83.52,-49.45334 6.2533,7.28 12.52,14.54667 18.7733,21.81334 -34.4533,-20.50667 -71.2667,-37 -109.5067,-49.06667 14.5067,9.26667 29,18.53333 43.5067,27.8 -46.1467,-6.84 -92.8533,-9.94667 -139.5067,-9.29333 12.5734,7.02666 25.1334,14.05333 37.6934,21.08 -27.16,3.56 -53.84,10.84 -79.04,21.57333 30.4933,2.10667 60.7466,7.84 89.8933,17.05333 -21.2267,9.82667 -40.8267,23.14667 -57.7867,39.25334 37.2267,0.33333 74.4667,-0.54667 111.64,-2.64 -14.76,9.92 -29.5333,19.85333 -44.2933,29.77333 58.9333,0.0133 116.4533,-34.77333 174.0933,-22.46667 -23.6133,9.90667 -45.8133,23.2 -65.7066,39.33333 40.9733,-14.48 84.1466,-22.72 127.5733,-24.34666 -25.3333,7.4 -48.8267,21.02666 -67.8267,39.33333 32.9867,-10.97333 67.56,-17.17333 102.32,-18.33333 -30.7333,13.34666 -59.24,31.78666 -84.04,54.32 33.3067,-10.93334 67.2934,-21.98667 102.3467,-21.96 41.16,0.0267 82.1067,16.10666 112.2933,44.09333 1.6934,1.56 3.48,3.98667 2.2667,5.94667 -1.2267,1.96 -4.68,-1.72 -2.3867,-1.96 l -26.32,-8.76"
         style="fill:#668944;fill-opacity:1;fill-rule:nonzero;stroke:none;stroke-width:0.133333" />
      <path
         id="path62"
         d="m -2966.2225,949.69867 c -31.7866,-24.72 -60.72,-53.09333 -86.04,-84.4 23.24,13.70667 46.4934,27.41333 69.7334,41.10667 -57.8,-33.96 -99.2934,-89.33334 -138.88,-143.44 33.2266,29.85333 67.8,58.2 103.5866,84.93333 -44.24,-43.21333 -83.8666,-91.17333 -117.9466,-142.77333 28.0266,24.02667 56.0533,48.04 84.08,72.06667 -35.6934,-37.62667 -69.72,-76.84 -101.9467,-117.49333 24.4267,16.55999 48.0133,34.37333 70.6267,53.33333 -34.6,-36.57334 -67.2534,-74.97333 -97.7734,-115 17.9067,15.38667 36.84,29.57333 56.6534,42.41333 -20.76,-24.73333 -41.5334,-49.46666 -62.2934,-74.21333 25.2667,15.21333 49.8534,31.54667 73.6667,48.96 -19.96,-29.41333 -41.6667,-57.65333 -64.9733,-84.49333 30.5066,27.38666 57.4533,58.73333 79.9466,93.01333 -7.8666,-24.10667 -12.2133,-49.34667 -12.88,-74.68 12.08,37.42667 24.1734,74.86667 36.2534,112.29333 -0.9467,-24.02666 2.2266,-48.21333 9.32,-71.18666 5.68,41.18666 11.36,82.37333 17.04,123.57333 1.7066,-31.09334 6.36,-67.28 33.2133,-83.04 -13.48,38.54666 -21.3067,79.08 -23.1333,119.86666 11.1466,-26.32 25.9466,-51.10666 43.84,-73.41333 -13.4534,37.70667 -24.3467,76.33333 -32.5867,115.52 10.0133,-21.85333 24.4133,-41.66667 42.0933,-57.93333 -12.5066,28.88 -20.44,59.73333 -23.4133,91.06666 9.3067,-16.72 21.5733,-31.78666 36.04,-44.32 -10.48,25.37333 -19.3333,51.41333 -26.4933,77.90667 12.88,-15.69334 25.7733,-31.37334 38.6666,-47.06667 -6.76,26.24 -13.52,52.48 -20.2933,78.72 13.32,-19.14667 27.28,-38.89333 47.4133,-50.68 -9.5333,20.16 -19.1466,40.54667 -23.7866,62.36 -4.64,21.81333 -3.8934,45.52 6.5733,65.21333 l -16.3067,-18.21333"
         style="fill:#93ad3f;fill-opacity:1;fill-rule:nonzero;stroke:none;stroke-width:0.133333" />
      <path
         id="path63"
         d="m -2913.4225,950.92533 c 45.1467,-5.77333 90.96,-6.33333 136.2267,-1.64 82.3066,8.53334 163.8,35.12 230.4666,84.14667 66.6667,49.0267 117.52,121.5733 132.6134,202.9333 -17.8,-31.9333 -37.0267,-63.08 -57.6267,-93.28 10.04,32.4134 17.1867,65.72 21.3067,99.4134 -15.68,-48.9067 -34.0267,-96.9467 -54.9467,-143.8533 3.4667,51.0666 13.3333,101.6933 29.3733,150.2933 -18.7066,-20.8934 -28.12,-48.28 -36.8533,-74.92 -11.0667,-33.7334 -21.76,-67.5867 -32.0933,-101.5467 -3.24,53.44 1.4133,107.36 13.7733,159.4667 -12.04,-17.4267 -15.2,-39.2667 -18.6133,-60.1734 -6.6534,-40.5866 -15.5334,-80.7999 -26.6134,-120.4133 -11.88,58.3067 -5.7866,118.5867 0.3467,177.7733 -32.9067,-62.76 -40,-135.7866 -40.1333,-206.6533 -13.5067,64.0667 -18.12,130 -13.6534,195.32 -27.1466,-67.84 -17.9866,-146.8 -49.44,-212.7467 4.1867,52.9601 5.8534,106.1201 5,159.2534 -15.0933,-32.8 -18.6266,-69.4933 -26.7866,-104.6533 -5.3867,-23.2001 -12.84,-45.9201 -22.2667,-67.80007 4.6,34.15997 11.6267,67.98667 21,101.14667 -33.9733,-33.1333 -44.9733,-85.1333 -80.4933,-116.62667 22.0533,38.07997 37.48,79.97337 45.4,123.24007 -24.8534,-45.2667 -51.84,-89.3601 -80.84,-132.0934 18.0533,32.05333 30.88,67.0533 37.8133,103.1867 -28.1333,-36.6134 -59.0267,-71.09337 -92.3333,-103.0667 15.1066,20 30.2266,40 45.3333,60 -26.96,-22.6 -55.7466,-46.05333 -90.4666,-51.64 -2.64,-0.42667 -9.7734,-0.0133 -18.2534,0.38667 -17.9066,0.85333 -41.7333,1.70666 -41.5466,-5.24 0.36,-12.69334 54.7466,-18.98667 64.3066,-20.21334"
         style="fill:#93ad3f;fill-opacity:1;fill-rule:nonzero;stroke:none;stroke-width:0.133333" />
      <path
         id="path64"
         d="m -2926.4091,987.25867 -23.2534,-15.18667 c -22.6133,-7.70667 -49.24,-0.56 -65.84,16.62667 -16.5866,17.17333 -22.8666,43.30663 -17.0533,66.46673 5.8133,23.1733 23.12,42.8933 44.84,52.84 2.4533,1.12 5.28,2.1333 7.8,1.1466 2,-0.7866 3.32,-2.6533 4.8,-4.2266 8.08,-8.64 21.4933,-8.7467 32.5733,-12.8934 18.96,-7.12 31.0934,-27.1866 32.7067,-47.3867 1.6267,-20.1866 -5.8133,-40.2266 -16.5733,-57.38663"
         style="fill:#4f3522;fill-opacity:1;fill-rule:nonzero;stroke:none;stroke-width:0.133333" />
      <path
         id="path65"
         d="m -2888.3825,962.832 -22.36,16.45333 c -15.1466,18.48 -17.7866,45.91997 -7.5066,67.47997 10.28,21.5601 32.56,36.5867 56.2933,39.2667 23.7333,2.6667 48.2666,-6.6266 65.1866,-23.48 1.92,-1.92 3.8534,-4.2 3.8134,-6.9066 -0.027,-2.1467 -1.32,-4.0534 -2.28,-5.9867 -5.2534,-10.6 -0.6534,-23.1867 -0.6667,-35.0134 -0.013,-20.26663 -14.5733,-38.6533 -32.9067,-47.23997 -18.3466,-8.6 -39.72,-8.65333 -59.5733,-4.57333"
         style="fill:#4f3522;fill-opacity:1;fill-rule:nonzero;stroke:none;stroke-width:0.133333" />
      <path
         id="path66"
         d="m -2975.7425,1011.632 c -3.64,15.0933 -3.3866,32.9867 7.76,43.8 7.48,7.24 18.2267,9.7067 28.4134,11.8934 16.7066,3.5733 33.4266,7.1466 50.1333,10.72 1.4,0.3066 2.8267,0.6 4.24,0.36 2.28,-0.4 4.0667,-2.1334 5.64,-3.84 14.5466,-15.7734 23.9866,-36.1867 26.5733,-57.4934 1.32,-10.8133 0.8533,-22.09333 -3.4667,-32.09333 -5.6266,-12.97334 -17.4399,-22.68 -30.7199,-27.54667 -42.1334,-15.48 -78.72,13.25333 -88.5734,54.2"
         style="fill:#755032;fill-opacity:1;fill-rule:nonzero;stroke:none;stroke-width:0.133333" />
      <path
         id="path67"
         d="m -3183.0758,999.232 c 34.7467,1.8 69.5067,3.6 104.2667,5.4 -69.9867,19.7067 -133.4534,50.44 -185.52,89.8134 45.36,-16.6134 92.1333,-31.2667 140.0666,-43.8667 -53.8266,19.3333 -106.16,40.7467 -156.7733,64.12 37.2,-12.4133 74.3867,-24.8267 111.5867,-37.24 -53.32,26.5067 -105.0534,54.72 -155.04,84.5466 37.12,-18.56 75.7333,-35.5199 115.6133,-50.7866 -71.2267,34.08 -137.92,73.1733 -199.0267,116.72 44.64,-24.8534 89.5734,-49.8267 140.0267,-67.92 -65.8267,43.56 -129.2267,89.1733 -190.0133,136.6933 41,-26.1067 82,-52.2133 123,-78.32 -61.4267,45.2667 -123.4667,91.12 -167.4667,147.1467 47.6933,-39.1467 95.9333,-78.6267 154.96,-107.9467 -34.7867,30.1333 -69.8933,60.64 -93.84,96.64 28.44,-29.1733 60.4933,-56.2133 95.6667,-80.7333 -5.2667,34.9733 -42.0267,63.3066 -39.6,98.9733 26.3466,-37.7733 52.6933,-75.5467 79.04,-113.32 -16.3334,28.2533 -27.8534,58.3467 -34.1867,89.3733 25.0933,-47.88 55.2667,-93.9733 90.1333,-137.7333 -5.0533,23.6533 -10.1066,47.3067 -15.1466,70.96 -1.4934,7.04 -2.68,15.0667 3.3866,21.0533 17.48,-44.3333 34.96,-88.68 52.44,-133.0266 -13.76,32.9733 -19.2666,68.3733 -16.1733,103.92 14.8133,-45.3867 29.64,-90.7734 44.4533,-136.1467 -10.44,36.8 -18.0266,74.24 -22.7066,112.08 26.5066,-43.1733 43.7066,-89.6933 60.8,-136 -9.0934,31.76 -14.8,64.2667 -17.04,97.1333 21.16,-46.48 42.32,-92.9599 63.48,-139.4399 -6.2,32.32 -12.4,64.6399 -18.6,96.9733 28.5733,-47.2267 50.9733,-96.8933 66.8133,-148.1067 -3.0533,32.2133 -12.92,63.3734 -22.7467,94.3867 25.2267,-30.4933 42.92,-64.8134 52.0267,-100.9067 -3.7733,22.32 -9.44,44.3334 -16.96,65.8667 20.3067,-29.1067 38.4667,-59.1467 54.36,-89.9867 -7.9467,19.1333 -15.8933,38.2667 -23.84,57.4 15.8267,-23.6533 31.6267,-47.29333 47.4667,-70.93333 17.8933,-26.69334 4.6933,-30.74667 -31.2,-23.90667 -66.1067,12.61333 -130.84,28.34667 -193.7067,47.12"
         style="fill:#93ad3f;fill-opacity:1;fill-rule:nonzero;stroke:none;stroke-width:0.133333" />
      <path
         id="path68"
         d="m -2937.5025,1026.3253 c -1.3333,0 -2.6533,-0.24 -3.8933,-0.7333 -7.28,-2.92 -9.1867,-12.28 -9.0533,-20.12 0.1466,-8.29333 1.5066,-16.8 5.8666,-23.84 3.6667,-5.89333 11.2934,-12.21333 18.7067,-12.21333 0.1333,0 0.2667,0 0.4133,0.0133 5.1867,0.16 18.2134,6.61333 18.7734,12.28 0.1466,1.38667 -0.56,2.72 -1.36,3.85333 -4.3467,6.18667 -12.2,9.65334 -15.32,16.5467 -2.8667,6.4 -1.0667,14.6 -5.4,20.1066 -2.0667,2.6267 -5.4134,4.1067 -8.7334,4.1067"
         style="fill:#8f7159;fill-opacity:1;fill-rule:nonzero;stroke:none;stroke-width:0.133333" />
      <path
         id="path70"
         d="m -2844.9292,1739.0053 c -63.7733,-92.16 -95.5333,-274.92 -107.9733,-429 -6.9466,-86.1066 -4.0933,-164.4666 1.2267,-224.9733 -2.12,-0.1066 -4.12,0.1734 -5.8667,0.9467 -0.6666,0.3067 -22.0266,45.6933 -22.2666,45.4 10.0533,12.84 13.16,30.8266 8,46.2933 -4.2934,12.8933 -13.3867,28.32 -4.1067,38.2267 1.9067,2.0266 4.4267,3.48 6.0667,5.72 2.4133,3.2933 2.5466,7.6533 2.6933,11.7333 0.9067,24.8667 5.7333,49.6533 4.0533,74.48 -1.68,24.8267 -11.3466,50.9333 -32.4266,64.16 10.68,-1.5467 21.3733,-3.0933 32.0533,-4.64 0.76,8.96 -5.08,17.9467 -13.3333,21.3333 6.68,-1.2533 14.0533,2.7467 18.0666,8.52 4.6534,6.6934 5.9067,15.1067 7.0267,23.1734 2.3733,17.0666 4.7467,34.4266 2.1067,51.4533 -2.64,17.04 -11.08,34 -25.8534,42.8533 9.8134,7.08 26.32,-11.12 33.88,-1.68 4.1467,5.1867 -0.3733,12.6267 -4.7466,17.6 4.5866,0.8667 9.1733,1.72 13.7733,2.5867 -9.6133,16.2133 -20.7733,31.52 -33.3067,45.6 5.1334,3.6667 12.2534,1.4267 17.9867,-1.1867 5.7467,-2.6266 12.3467,-5.5333 18.0667,-2.88 5.72,2.6534 5.3866,13.7867 -0.9067,13.36 12.8533,4.08 15.64,21.4934 11.9333,34.4534 -3.7066,12.96 -11.52,25.0666 -11.4133,38.5466 7.1333,-0.7466 14.28,-1.4933 21.4267,-2.24 -1.4534,16.44 -5.5467,32.64 -12.0534,47.7867 4.5467,1.56 9.44,-0.5733 13.9334,-2.28 4.4933,-1.7067 10,-2.8933 13.7733,0.093 3.7733,2.9867 1.4933,11.12 -3.12,9.7867 10.24,9.7067 20.4933,19.4267 30.7333,29.1333 3.6933,3.5067 7.5067,7.1867 9.2667,11.9734 7.8933,21.4666 -29.6933,40.8 -20.92,61.9333 14.2933,-10.24 28.5733,-20.4933 42.8666,-30.7467 0.4934,8.3467 1,16.68 1.4934,25.0267 5.0133,-6.8267 18.0266,-3.8 19.4933,4.5333 4.2667,-0.48 8.5333,-0.96 12.8,-1.44 -10.08,20.48 -20.16,40.96 -30.24,61.4267 14.2133,-10.56 28.7067,-20.7333 43.4667,-30.52 -4.5867,21.68 -12.32,42.6933 -22.9067,62.1467 25.4667,-2.3067 39.7733,-39.1467 65.1733,-36.2134 0.9867,7.6667 -1.0933,15.68 -5.6933,21.9067 4.72,-3.52 9.44,-7.0533 14.16,-10.5867 2.7467,7.2934 13.9733,9.3734 19.1467,3.5334 0.44,6.2133 0.8933,12.4266 1.3333,18.64 0.12,1.6666 0.3467,3.5466 1.68,4.5733 1.6533,1.2533 4,0.52 5.92,-0.28 15.12,-6.2267 30.5733,-12.6667 42.7067,-23.64 0.8933,-0.8133 1.76,-1.6533 2.6133,-2.52 v -0.08 c 0,0 -132.96,-73.4533 -181.7867,-144.0267"
         style="fill:#7f5737;fill-opacity:1;fill-rule:nonzero;stroke:none;stroke-width:0.133333" />
      <path
         id="path55-5"
         d="m -1832.6122,684.78168 c -56.44,-47.01333 -123.0667,-81.70666 -193.9334,-100.98666 9.2534,13.32 23.4134,22.24 37.1867,30.8 -19.16,-1.10667 -38.32,-2.2 -57.4933,-3.30667 16.9733,7.77334 32.96,17.70667 47.4533,29.48 -31.6133,-5.4 -64.0267,-6.08 -95.8267,-2 9.52,5.50667 18.4267,12.09334 26.48,19.58667 -13.5466,-1.2 -27.4666,2.54667 -38.56,10.38667 5.64,3.32 10.28,8.34666 13.12,14.24 -3.56,0.71999 -7.1466,1.43999 -10.72,2.14666 13.3867,27.52 43.8934,41.34667 71.4934,54.56 39.64,18.98667 77.8266,40.98667 114.12,65.77333 -51.44,11.44 -101.2534,30.12 -147.5334,55.32 10.3067,2.05333 20.8934,2.72 31.3734,1.97333 -9.0534,4.72 -17.4934,10.58667 -25.08,17.42667 7.7733,1.37333 15.56,2.76 23.3333,4.14667 -5.08,3.90666 -10.1733,7.81333 -15.2533,11.73333 26.7333,-0.8 52.3466,9.48 77.92,17.32 69.2533,21.22667 142.4533,25.05333 214.7866,28.73333 6.1334,0.30667 12.44,0.6 18.2534,-1.37333 9.5733,-3.26667 16.2533,-12.28 19.36,-21.90667 7.24,-22.50666 -2.3734,-46.66666 -12.3334,-68.10666 -22.7466,-48.97333 -48.2666,-96.64 -76.4,-142.73333 l -21.7466,-23.21334"
         style="fill:#ffe964;fill-opacity:1;fill-rule:nonzero;stroke:none;stroke-width:0.133333" />
      <path
         id="path56-6"
         d="m -1595.5323,779.36835 c -14.0399,16.98667 -25.3066,36.25333 -33.2266,56.81333 35.5333,-42.56 71.7466,-85.74666 117.96,-116.36 -18.8534,21.04 -35.4934,44.06667 -49.56,68.57334 38.2266,-41.24 85.08,-74.42667 136.6666,-96.81334 -15.1333,14.32 -29,29.96 -41.4266,46.68 22.7866,-12.88 45.6133,-25.69333 68.48,-38.41333 20.04,-11.14667 40.9866,-22.49333 63.8666,-23.84 -20.3066,19.62667 -40.6133,39.25333 -60.92,58.88 51.72,-22.38667 106.2267,-45.24 162.3334,-39.94667 -24.6267,13.8 -48.68,28.6 -72.0934,44.36 50.9867,-9.53333 103.16,-12.76 154.9334,-9.57333 -37.9867,9.18667 -75.2267,21.4 -111.28,36.49333 50.8533,-3.53333 102.0533,-1.72 152.52,5.37334 -33.3334,9.56 -66.6667,19.12 -100,28.66666 46.8533,3.90667 93.7066,7.8 140.5733,11.69334 -50.92,10.43999 -96.68,39.45333 -147.7867,48.95999 -59.7866,11.10667 -120.88,-5.37333 -181.64,-7.85333 -64.24,-2.62667 -128.9466,11.18667 -186.9066,38.90667 -16.28,7.78666 -57.8,44.28 -74.8,39.30666 -19.8933,-5.82666 -16.12,-41.74666 -10.4667,-55.49333 14.6267,-35.62667 47.8667,-67.78666 72.7733,-96.41333"
         style="fill:#ffff80;fill-opacity:1;fill-rule:nonzero;stroke:none;stroke-width:0.133333" />
      <path
         id="path57-6"
         d="m -1755.3456,560.55502 c -3.8666,8.34667 -6.0933,17.42667 -6.5066,26.61333 22.0666,-19.66666 50.5733,-31.97333 80.0266,-34.56 -10.3333,12.17334 -17.9733,26.62667 -22.2133,42.01334 8.3067,-6.77334 17.8933,-11.94667 28.1067,-15.18667 -6.6,11.38667 -11.2934,23.86667 -13.8134,36.78667 11.84,-5.12 23.04,-11.73334 33.24,-19.65334 -14.7866,25.01334 -24.6266,52.93334 -28.8133,81.69334 17.5467,-23.02667 39.24,-48.24 68.1867,-48.49334 -21.9734,32.53334 -44.5467,66.64 -49.6134,105.56 13.1067,-18.06667 29.0267,-34.06667 47.0267,-47.26667 -15.4667,21.74667 -27.16,46.18667 -34.36,71.88 12.72,-12.85333 25.4533,-25.70666 38.1733,-38.56 -15.0133,22.77334 -27.84,46.98667 -38.2133,72.21334 12.1067,-9.45334 22.3733,-21.25334 30.0533,-34.54667 -25.28,48.02667 -42.08,100.52 -49.3733,154.30666 -2.64,19.37334 -4.2,39.48 -13.2267,56.82667 -1.2666,2.42666 -2.9466,5 -5.6,5.65333 -5.12,1.26667 -8.6,-5.02667 -10.0133,-10.10667 -5.9867,-21.33333 -10.5867,-43.05333 -17.4933,-64.10666 -8.7067,-26.46667 -20.9734,-51.6 -33.2134,-76.64 -26.4,-54.02666 -55.1733,-107.50666 -79.44,-162.53333 -10.9733,-24.89333 2.7334,-39.61333 20.0534,-58.48 6.2,-6.76 56.76,-39.69333 57.0266,-43.41333"
         style="fill:#a2550d;fill-opacity:1;fill-rule:nonzero;stroke:none;stroke-width:0.133333" />
      <path
         id="path58-2"
         d="m -1836.9456,863.24835 c 16,14.32 31.9867,28.65333 47.9734,42.97333 -48.2,-21.08 -98.4134,-37.53333 -149.7467,-49.06667 27.5067,15.69334 54.4,32.44 80.6,50.21334 -54.16,-15.22667 -109.7067,-25.56 -165.72,-30.81334 33.1733,15.18667 66.36,30.38667 99.5333,45.58667 -64.4933,-11.17333 -131,-10.66667 -195.32,1.50667 4.76,8.08 14.8267,11.01333 23.9334,13.25333 32.4533,8 64.92,16.01333 97.3866,24.01333 -69.8533,6.41333 -138.9066,21.50667 -205.0666,44.81329 39.6,3.6 79.3066,6.04 119.04,7.3334 -67.12,14.5333 -131.44,41.84 -188.5227,80.0133 40.7627,-7.1067 81.6693,-13.3067 122.7093,-18.6 -53.5866,21.8 -102.8533,54.1333 -144.184,94.6133 44.2374,-21.4399 88.0907,-43.64 131.5574,-66.6 -42.44,22.7067 -78.36,57.4134 -102.5067,99.04 50.48,-39.36 100.9467,-78.7333 151.4133,-118.1066 -21.4666,24.0933 -38.24,52.3466 -49.1466,82.72 36.2133,-41.76 72.4266,-83.5067 108.64,-125.2534 -20.7334,37.2667 -41.48,74.5467 -62.2134,111.8267 38.1467,-46.3467 76.3067,-92.68 114.4667,-139.0267 -20.76,36.2667 -41.5067,72.5334 -62.2533,108.8134 22,-17.4 38.7733,-40.4 55.2533,-63.08 18.3333,-25.24 36.6667,-50.4667 54.9867,-75.69336 -19.0667,37.62666 -38.1467,75.25336 -57.2267,112.87996 33.1333,-50.44 71.0133,-97.75996 112.96,-141.13329 -23.84,39.92 -47.68,79.85329 -71.52,119.78669 32.8933,-42.9467 66.08,-86.22669 106.9333,-121.68002 -13.8266,29.02666 -30.92,56.48002 -50.88,81.68002 38.1734,-20.6 60.2267,-64.50669 99.6667,-82.54669 -17.8133,14.28 -33.32,31.44 -45.7467,50.58669 30.3467,-21.25336 63.12,-39.05336 97.4934,-52.90669 -23.7867,14.13333 -45.8667,31.16 -65.5867,50.58669 28.4933,-14.13336 57.6,-27.00002 87.2133,-38.57336 -15.2,7.8 -28.2933,19.68 -37.5333,34.05334 6.84,-10.64 54.4533,-19.09334 66.92,-22.29334 -4.64,4.26667 -9.7733,8.08 -14.3867,12.34667 49.76,-8.09333 20.7867,-41.54666 -5.0533,-60.61333 -33.0933,-24.42667 -68.68,-45.48 -106.0667,-62.65333"
         style="fill:#fea50f;fill-opacity:1;fill-rule:nonzero;stroke:none;stroke-width:0.133333" />
      <path
         id="path59-0"
         d="m -1528.0923,2032.955 c -4.4,-6.5067 -95.9866,-78.2667 -152.1999,-224.4933 -49.3467,-128.4 -58.08,-292.1867 -64.16,-458.7734 -6.4267,-175.7066 33.4533,-385.39996 33.4533,-385.39996 l 43.6933,13.56 c 0,0 -34,154.62666 -18.36,348.31996 12.44,154.08 44.2,336.84 107.9733,429 48.8267,70.5734 181.7867,144.0267 181.7867,144.0267 0,0 -4.0133,56.7067 -47.4933,78.76 l -84.6934,55"
         style="fill:#95693f;fill-opacity:1;fill-rule:nonzero;stroke:none;stroke-width:0.133333" />
      <path
         id="path60-4"
         d="m -1629.6389,847.22168 c -7.88,18.37333 -12.8,38.01333 -14.5067,57.92 26.36,-40.73333 61.36,-75.86667 102,-102.38666 -12.7733,22.13333 -25.56,44.25333 -38.3333,66.38666 42.7333,-37.69333 88.16,-76.77333 143.9466,-88.37333 -19.3733,16 -36.8533,34.28 -51.9733,54.33333 47.6,-23.61333 100.4133,-36.65333 153.5333,-37.89333 -23.2933,6.93333 -45.6666,16.90667 -66.3733,29.6 58.7067,-7.09334 119.3467,-14.05333 176.0933,2.57333 -18.6933,-3.84 -38.32,-3.01333 -56.6266,2.4 47.68,1.33333 95.1333,10.26667 140.0266,26.37333 -29.6266,-0.10666 -59.2533,-0.21333 -88.8666,-0.32 59.7866,19.14667 121.32,39.24 168.9866,80.09334 -40.76,-7.54667 -80.48,-20.61334 -117.76,-38.73334 17.8934,16.46667 32.16,36.84 41.5067,59.28 -30.84,-23.85333 -64.2667,-44.32 -99.52,-60.94666 20.44,22.98666 37.52,48.96 50.56,76.82666 -48.88,-34 -99.3333,-65.74666 -151.1467,-95.08 25.8534,21.12 48.6534,45.97334 67.4534,73.56 -45.24,-30.81333 -92.6934,-58.37333 -141.8667,-82.41333 32.6533,24.24 61.8267,53.17333 86.3067,85.64 -57.8,-29.18667 -118.6,-52.44 -181.1334,-69.25333 40.3734,17.45333 78.3734,40.37333 112.6534,67.93333 -49.7067,-17.68 -99.8534,-34.08 -150.4,-49.21333 32.6266,15.12 65.4133,30.34666 95.0266,50.73333 -46.04,-14.56 -92.8133,-26.8 -140.0933,-36.66667 31.48,14.50667 61.9467,31.21333 90.96,50.16 -48.0267,-17.65333 -97.8667,-30.34666 -148.48,-37.78666 30.8534,10 60.6533,23.26666 88.72,39.51999 -37.7067,-2.69333 -75.6,-2.96 -113.3466,-0.78666 17.3866,3.53333 34.7733,7.05333 52.1733,10.58666 -28.44,4.37334 -94,29.22666 -83.8533,-25.24 3.72,-19.93333 19.8266,-39.98666 31.1866,-56.27999 11.44,-16.4 35.56,-34.85334 43.1467,-52.54667"
         style="fill:#cf7d14;fill-opacity:1;fill-rule:nonzero;stroke:none;stroke-width:0.133333" />
      <path
         id="path61-5"
         d="m -1736.7856,920.52835 c -47.6266,-66.53334 -105.0666,-126.01333 -169.8933,-175.93333 2.48,7.61333 4.96,15.22666 7.4267,22.84 -27.04,-17.78667 -54.92,-34.29334 -83.52,-49.45334 6.2533,7.28 12.52,14.54667 18.7733,21.81334 -34.4533,-20.50667 -71.2667,-37 -109.5067,-49.06667 14.5067,9.26667 29,18.53333 43.5067,27.8 -46.1467,-6.84 -92.8533,-9.94667 -139.5067,-9.29333 12.5734,7.02666 25.1334,14.05333 37.6934,21.08 -27.16,3.56 -53.84,10.84 -79.04,21.57333 30.4933,2.10667 60.7466,7.84 89.8933,17.05333 -21.2267,9.82667 -40.8267,23.14667 -57.7867,39.25334 37.2267,0.33333 74.4667,-0.54667 111.64,-2.64 -14.76,9.92 -29.5333,19.85333 -44.2933,29.77333 58.9333,0.0133 116.4533,-34.77333 174.0933,-22.46667 -23.6133,9.90667 -45.8133,23.2 -65.7066,39.33333 40.9733,-14.48 84.1466,-22.72 127.5733,-24.34666 -25.3333,7.4 -48.8267,21.02666 -67.8267,39.33333 32.9867,-10.97333 67.56,-17.17333 102.32,-18.33333 -30.7333,13.34666 -59.24,31.78666 -84.04,54.32 33.3067,-10.93334 67.2934,-21.98667 102.3467,-21.96 41.16,0.0267 82.1067,16.10666 112.2933,44.09333 1.6934,1.56 3.48,3.98667 2.2667,5.94667 -1.2267,1.96 -4.68,-1.72 -2.3867,-1.96 l -26.32,-8.76"
         style="fill:#fed248;fill-opacity:1;fill-rule:nonzero;stroke:none;stroke-width:0.133333" />
      <path
         id="path62-5"
         d="m -1698.9856,965.86168 c -31.7866,-24.72 -60.72,-53.09333 -86.04,-84.4 23.24,13.70667 46.4934,27.41333 69.7334,41.10667 -57.8,-33.96 -99.2934,-89.33334 -138.88,-143.44 33.2266,29.85333 67.8,58.2 103.5866,84.93333 -44.24,-43.21333 -83.8666,-91.17333 -117.9466,-142.77333 28.0266,24.02667 56.0533,48.04 84.08,72.06667 -35.6934,-37.62667 -69.72,-76.84 -101.9467,-117.49333 24.4267,16.55999 48.0133,34.37333 70.6267,53.33333 -34.6,-36.57334 -67.2534,-74.97333 -97.7734,-115 17.9067,15.38667 36.84,29.57333 56.6534,42.41333 -20.76,-24.73333 -41.5334,-49.46666 -62.2934,-74.21333 25.2667,15.21333 49.8534,31.54667 73.6667,48.96 -19.96,-29.41333 -41.6667,-57.65333 -64.9733,-84.49333 30.5066,27.38666 57.4533,58.73333 79.9466,93.01333 -7.8666,-24.10667 -12.2133,-49.34667 -12.88,-74.68 12.08,37.42667 24.1734,74.86667 36.2534,112.29333 -0.9467,-24.02666 2.2266,-48.21333 9.32,-71.18666 5.68,41.18666 11.36,82.37333 17.04,123.57333 1.7066,-31.09334 6.36,-67.28 33.2133,-83.04 -13.48,38.54666 -21.3067,79.08 -23.1333,119.86666 11.1466,-26.32 25.9466,-51.10666 43.84,-73.41333 -13.4534,37.70667 -24.3467,76.33333 -32.5867,115.52 10.0133,-21.85333 24.4133,-41.66667 42.0933,-57.93333 -12.5066,28.88 -20.44,59.73333 -23.4133,91.06666 9.3067,-16.72 21.5733,-31.78666 36.04,-44.32 -10.48,25.37333 -19.3333,51.41333 -26.4933,77.90667 12.88,-15.69334 25.7733,-31.37334 38.6666,-47.06667 -6.76,26.24 -13.52,52.48 -20.2933,78.72 13.32,-19.14667 27.28,-38.89333 47.4133,-50.68 -9.5333,20.16 -19.1466,40.54667 -23.7866,62.36 -4.64,21.81333 -3.8934,45.52 6.5733,65.21333 l -16.3067,-18.21333"
         style="fill:#fea50f;fill-opacity:1;fill-rule:nonzero;stroke:none;stroke-width:0.133333" />
      <path
         id="path63-8"
         d="m -1646.1856,967.08834 c 45.1467,-5.77333 90.96,-6.33333 136.2267,-1.64 82.3066,8.53334 163.8,35.11996 230.4666,84.14666 66.6667,49.0267 117.52,121.5733 132.6134,202.9333 -17.8,-31.9333 -37.0267,-63.08 -57.6267,-93.28 10.04,32.4134 17.1867,65.72 21.3067,99.4134 -15.68,-48.9067 -34.0267,-96.9467 -54.9467,-143.8534 3.4667,51.0667 13.3333,101.6934 29.3733,150.2934 -18.7066,-20.8934 -28.12,-48.28 -36.8533,-74.92 -11.0667,-33.7334 -21.76,-67.5867 -32.0933,-101.5467 -3.24,53.44 1.4133,107.36 13.7733,159.4667 -12.04,-17.4267 -15.2,-39.2667 -18.6133,-60.1734 -6.6534,-40.5866 -15.5334,-80.8 -26.6134,-120.4133 -11.88,58.3067 -5.7866,118.5867 0.3467,177.7733 -32.9067,-62.76 -40,-135.7866 -40.1333,-206.6533 -13.5067,64.0667 -18.12,130 -13.6534,195.32 -27.1466,-67.84 -17.9866,-146.8 -49.44,-212.7467 4.1867,52.96 5.8534,106.12 5,159.2534 -15.0933,-32.8 -18.6266,-69.4934 -26.7866,-104.6534 -5.3867,-23.2 -12.84,-45.92 -22.2667,-67.8 4.6,34.16 11.6267,67.9867 21,101.1467 -33.9733,-33.1333 -44.9733,-85.1333 -80.4933,-116.62666 22.0533,38.07996 37.48,79.97336 45.4,123.23996 -24.8534,-45.2666 -51.84,-89.36 -80.84,-132.09329 18.0533,32.05329 30.88,67.05329 37.8133,103.18669 -28.1333,-36.6134 -59.0267,-71.0934 -92.3333,-103.06669 15.1066,19.99999 30.2266,39.99999 45.3333,59.99999 -26.96,-22.6 -55.7466,-46.05332 -90.4666,-51.63999 -2.64,-0.42667 -9.7734,-0.0133 -18.2534,0.38667 -17.9066,0.85333 -41.7333,1.70666 -41.5466,-5.24 0.36,-12.69334 54.7466,-18.98667 64.3066,-20.21334"
         style="fill:#fea50f;fill-opacity:1;fill-rule:nonzero;stroke:none;stroke-width:0.133333" />
      <path
         id="path64-0"
         d="m -1659.1722,1003.4217 -23.2534,-15.18669 c -22.6133,-7.70667 -49.24,-0.56 -65.84,16.62669 -16.5866,17.1733 -22.8666,43.3066 -17.0533,66.4666 5.8133,23.1734 23.12,42.8934 44.84,52.84 2.4533,1.12 5.28,2.1334 7.8,1.1467 2,-0.7867 3.32,-2.6533 4.8,-4.2267 8.08,-8.64 21.4933,-8.7466 32.5733,-12.8933 18.96,-7.12 31.0934,-27.1867 32.7067,-47.3867 1.6267,-20.1866 -5.8133,-40.2266 -16.5733,-57.3866"
         style="fill:#4f3522;fill-opacity:1;fill-rule:nonzero;stroke:none;stroke-width:0.133333" />
      <path
         id="path65-3"
         d="m -1621.1456,978.99501 -22.36,16.45333 c -15.1466,18.47996 -17.7866,45.91996 -7.5066,67.47996 10.28,21.56 32.56,36.5867 56.2933,39.2667 23.7333,2.6667 48.2666,-6.6267 65.1866,-23.48 1.92,-1.92 3.8534,-4.2 3.8134,-6.9067 -0.027,-2.1466 -1.32,-4.0533 -2.28,-5.9866 -5.2534,-10.6 -0.6534,-23.1867 -0.6667,-35.0134 -0.013,-20.2666 -14.5733,-38.65329 -32.9067,-47.23996 -18.3466,-8.6 -39.72,-8.65333 -59.5733,-4.57333"
         style="fill:#4f3522;fill-opacity:1;fill-rule:nonzero;stroke:none;stroke-width:0.133333" />
      <path
         id="path66-2"
         d="m -1708.5056,1027.795 c -3.64,15.0933 -3.3866,32.9867 7.76,43.8 7.48,7.24 18.2267,9.7067 28.4134,11.8933 16.7066,3.5734 33.4266,7.1467 50.1333,10.72 1.4,0.3067 2.8267,0.6 4.24,0.36 2.28,-0.4 4.0667,-2.1333 5.64,-3.84 14.5466,-15.7733 23.9866,-36.1866 26.5733,-57.4933 1.32,-10.8133 0.8533,-22.0933 -3.4667,-32.0933 -5.6266,-12.97336 -17.4399,-22.68002 -30.7199,-27.54669 -42.1334,-15.48 -78.72,13.25333 -88.5734,54.19999"
         style="fill:#755032;fill-opacity:1;fill-rule:nonzero;stroke:none;stroke-width:0.133333" />
      <path
         id="path67-9"
         d="m -1915.8389,1015.395 c 34.7467,1.8 69.5067,3.6 104.2667,5.4 -69.9867,19.7067 -133.4534,50.44 -185.52,89.8133 45.36,-16.6133 92.1333,-31.2666 140.0666,-43.8666 -53.8266,19.3333 -106.16,40.7466 -156.7733,64.12 37.2,-12.4134 74.3867,-24.8267 111.5867,-37.24 -53.32,26.5066 -105.0534,54.72 -155.04,84.5466 37.12,-18.56 75.7333,-35.5199 115.6133,-50.7866 -71.2267,34.08 -137.92,73.1733 -199.0267,116.72 44.64,-24.8534 89.5734,-49.8267 140.0267,-67.92 -65.8267,43.56 -129.2267,89.1733 -190.0133,136.6933 41,-26.1067 82,-52.2133 123,-78.32 -61.4267,45.2667 -123.4667,91.12 -167.4667,147.1467 47.6933,-39.1467 95.9333,-78.6267 154.96,-107.9467 -34.7867,30.1333 -69.8933,60.64 -93.84,96.64 28.44,-29.1733 60.4933,-56.2133 95.6667,-80.7333 -5.2667,34.9733 -42.0267,63.3066 -39.6,98.9733 26.3466,-37.7733 52.6933,-75.5467 79.04,-113.32 -16.3334,28.2533 -27.8534,58.3467 -34.1867,89.3733 25.0933,-47.88 55.2667,-93.9733 90.1333,-137.7333 -5.0533,23.6533 -10.1066,47.3067 -15.1466,70.96 -1.4934,7.04 -2.68,15.0667 3.3866,21.0533 17.48,-44.3333 34.96,-88.68 52.44,-133.0266 -13.76,32.9733 -19.2666,68.3733 -16.1733,103.92 14.8133,-45.3867 29.64,-90.7734 44.4533,-136.1467 -10.44,36.8 -18.0266,74.24 -22.7066,112.08 26.5066,-43.1733 43.7066,-89.6933 60.8,-136 -9.0934,31.76 -14.8,64.2667 -17.04,97.1333 21.16,-46.48 42.32,-92.96 63.48,-139.44 -6.2,32.32 -12.4,64.64 -18.6,96.9734 28.5733,-47.2267 50.9733,-96.8934 66.8133,-148.1067 -3.0533,32.2133 -12.92,63.3733 -22.7467,94.3867 25.2267,-30.4934 42.92,-64.8134 52.0267,-100.9067 -3.7733,22.32 -9.44,44.3333 -16.96,65.8667 20.3067,-29.1067 38.4667,-59.1467 54.36,-89.9867 -7.9467,19.1333 -15.8933,38.2667 -23.84,57.4 15.8267,-23.6533 31.6267,-47.2933 47.4667,-70.93332 17.8933,-26.69334 4.6933,-30.74667 -31.2,-23.90667 -66.1067,12.61333 -130.84,28.34667 -193.7067,47.11999"
         style="fill:#cf7d14;fill-opacity:1;fill-rule:nonzero;stroke:none;stroke-width:0.133333" />
      <path
         id="path68-4"
         d="m -1670.2656,1042.4883 c -1.3333,0 -2.6533,-0.24 -3.8933,-0.7333 -7.28,-2.92 -9.1867,-12.28 -9.0533,-20.12 0.1466,-8.2933 1.5066,-16.8 5.8666,-23.83999 3.6667,-5.89333 11.2934,-12.21333 18.7067,-12.21333 0.1333,0 0.2667,0 0.4133,0.0133 5.1867,0.16 18.2134,6.61333 18.7734,12.28 0.1466,1.38667 -0.56,2.72002 -1.36,3.85332 -4.3467,6.1867 -12.2,9.6534 -15.32,16.5467 -2.8667,6.4 -1.0667,14.6 -5.4,20.1067 -2.0667,2.6266 -5.4134,4.1066 -8.7334,4.1066"
         style="fill:#8f7159;fill-opacity:1;fill-rule:nonzero;stroke:none;stroke-width:0.133333" />
      <path
         id="path70-9"
         d="m -1577.6923,1755.1683 c -63.7733,-92.16 -95.5333,-274.92 -107.9733,-429 -6.9466,-86.1066 -4.0933,-164.4666 1.2267,-224.9733 -2.12,-0.1067 -4.12,0.1733 -5.8667,0.9467 -0.6666,0.3066 -22.0266,45.6933 -22.2666,45.4 10.0533,12.84 13.16,30.8266 8,46.2933 -4.2934,12.8933 -13.3867,28.32 -4.1067,38.2267 1.9067,2.0266 4.4267,3.48 6.0667,5.72 2.4133,3.2933 2.5466,7.6533 2.6933,11.7333 0.9067,24.8667 5.7333,49.6533 4.0533,74.48 -1.68,24.8267 -11.3466,50.9333 -32.4266,64.16 10.68,-1.5467 21.3733,-3.0933 32.0533,-4.64 0.76,8.96 -5.08,17.9467 -13.3333,21.3333 6.68,-1.2533 14.0533,2.7467 18.0666,8.52 4.6534,6.6934 5.9067,15.1067 7.0267,23.1734 2.3733,17.0666 4.7467,34.4266 2.1067,51.4533 -2.64,17.04 -11.08,34 -25.8534,42.8533 9.8134,7.08 26.32,-11.12 33.88,-1.68 4.1467,5.1867 -0.3733,12.6267 -4.7466,17.6 4.5866,0.8667 9.1733,1.72 13.7733,2.5867 -9.6133,16.2133 -20.7733,31.52 -33.3067,45.6 5.1334,3.6667 12.2534,1.4267 17.9867,-1.1867 5.7467,-2.6266 12.3467,-5.5333 18.0667,-2.88 5.72,2.6534 5.3866,13.7867 -0.9067,13.36 12.8533,4.08 15.64,21.4934 11.9333,34.4534 -3.7066,12.96 -11.52,25.0666 -11.4133,38.5466 7.1333,-0.7466 14.28,-1.4933 21.4267,-2.24 -1.4534,16.44 -5.5467,32.64 -12.0534,47.7867 4.5467,1.56 9.44,-0.5733 13.9334,-2.28 4.4933,-1.7067 10,-2.8933 13.7733,0.093 3.7733,2.9867 1.4933,11.12 -3.12,9.7867 10.24,9.7067 20.4933,19.4267 30.7333,29.1333 3.6933,3.5067 7.5067,7.1867 9.2667,11.9734 7.8933,21.4666 -29.6933,40.8 -20.92,61.9333 14.2933,-10.24 28.5733,-20.4933 42.8666,-30.7467 0.4934,8.3467 1,16.68 1.4934,25.0267 5.0133,-6.8267 18.0266,-3.8 19.4933,4.5333 4.2667,-0.48 8.5333,-0.96 12.8,-1.44 -10.08,20.48 -20.16,40.96 -30.24,61.4267 14.2133,-10.56 28.7067,-20.7333 43.4667,-30.52 -4.5867,21.68 -12.32,42.6933 -22.9067,62.1467 25.4667,-2.3067 39.7733,-39.1467 65.1733,-36.2134 0.9867,7.6667 -1.0933,15.68 -5.6933,21.9067 4.72,-3.52 9.44,-7.0533 14.16,-10.5867 2.7467,7.2934 13.9733,9.3734 19.1467,3.5334 0.44,6.2133 0.8933,12.4266 1.3333,18.64 0.12,1.6666 0.3467,3.5466 1.68,4.5733 1.6533,1.2533 4,0.52 5.92,-0.28 15.12,-6.2267 30.5733,-12.6667 42.7067,-23.64 0.8933,-0.8133 1.76,-1.6533 2.6133,-2.52 v -0.08 c 0,0 -132.96,-73.4533 -181.7867,-144.0267"
         style="fill:#7f5737;fill-opacity:1;fill-rule:nonzero;stroke:none;stroke-width:0.133333" />
    </g>
  </g>
</svg>
